<svg width="720" height="274" viewBox="0 0 720 274" fill="none" xmlns="http://www.w3.org/2000/svg">
<g clip-path="url(#clip0_802_1827)">
<path opacity="0.06" d="M0 221.115H126.141V267.31H179.266V221.115H211.859V176.587H179.266V4.50749H109.715L0 177.357V221.115ZM127.167 176.587H55.9483V174.534L125.114 65.0754H127.167V176.587Z" fill="white" fill-opacity="0.9"/>
<path opacity="0.06" d="M359.15 273.085C425.236 273.085 465.144 222.783 465.272 136.166C465.401 50.1902 424.98 0.914566 359.15 0.914566C293.193 0.914566 253.157 50.0618 253.029 136.166C252.771 222.527 292.936 272.957 359.15 273.085ZM359.15 227.018C328.995 227.018 309.489 196.734 309.618 136.166C309.747 76.4962 329.123 46.4688 359.15 46.4688C389.049 46.4688 408.554 76.4962 408.554 136.166C408.683 196.734 389.178 227.018 359.15 227.018Z" fill="white" fill-opacity="0.9"/>
<path opacity="0.06" d="M508.141 221.115H634.281V267.31H687.407V221.115H720V176.587H687.407V4.50749H617.856L508.141 177.357V221.115ZM635.308 176.587H564.089V174.534L633.255 65.0754H635.308V176.587Z" fill="white" fill-opacity="0.9"/>
</g>
<defs>
<clipPath id="clip0_802_1827">
<rect width="720" height="272.171" fill="white" transform="translate(0 0.914566)"/>
</clipPath>
</defs>
</svg>
