<svg width="190" height="61" viewBox="0 0 190 61" fill="none" xmlns="http://www.w3.org/2000/svg">
<path opacity="0.5" d="M64.067 0.410504L48.388 55.9541C48.3082 56.2062 47.9893 56.2819 47.8033 56.1054L37.3064 46.1464L45.1724 18.3115C45.2522 18.0594 45.013 17.8325 44.7472 17.9081L15.4089 25.3711L4.96507 15.4625C4.77905 15.286 4.85878 14.9834 5.12452 14.9078L63.6418 0.00710022C63.9075 -0.0433252 64.1467 0.183589 64.067 0.410504Z" fill="#00B37E"/>
<path opacity="0.5" d="M37.3058 46.1459L33.2665 60.5171C33.1868 60.7693 32.8679 60.8449 32.6818 60.6684L0.101381 29.7828C-0.0846408 29.6063 -0.00491742 29.3038 0.260829 29.2282L15.4084 25.3706L37.3058 46.1459Z" fill="#00B37E"/>
<path d="M45.1711 18.311L37.305 46.1459L15.4076 25.3706L44.7459 17.9076C45.0117 17.832 45.2508 18.0589 45.1711 18.311Z" fill="#00B37E"/>
<path d="M88.7809 32.3985H84.146V29.4752H88.7809C89.4971 29.4752 90.0801 29.3586 90.5299 29.1254C90.9796 28.8839 91.3086 28.5507 91.5168 28.126C91.725 27.7012 91.8291 27.2223 91.8291 26.6893C91.8291 26.1479 91.725 25.6441 91.5168 25.1777C91.3086 24.7113 90.9796 24.3365 90.5299 24.0533C90.0801 23.7701 89.4971 23.6286 88.7809 23.6286H85.4453V38.8823H81.6974V20.6927H88.7809C90.2051 20.6927 91.4252 20.9509 92.4413 21.4673C93.4657 21.9753 94.2486 22.6791 94.7899 23.5786C95.3313 24.4781 95.602 25.5066 95.602 26.6643C95.602 27.8386 95.3313 28.8547 94.7899 29.7126C94.2486 30.5704 93.4657 31.2325 92.4413 31.6989C91.4252 32.1653 90.2051 32.3985 88.7809 32.3985ZM102.173 20.6927V38.8823H98.4378V20.6927H102.173ZM110.069 35.9965L113.692 20.6927H115.715L116.178 23.2413L112.317 38.8823H110.144L110.069 35.9965ZM108.207 20.6927L111.206 35.9965L110.956 38.8823H108.532L104.497 20.6927H108.207ZM119.363 35.934L122.324 20.6927H126.035L122.012 38.8823H119.588L119.363 35.934ZM116.852 20.6927L120.5 36.0589L120.4 38.8823H118.226L114.341 23.2288L114.841 20.6927H116.852ZM138.19 20.6927V38.8823H134.442V20.6927H138.19ZM145.436 28.4633V31.3866H137.166V28.4633H145.436ZM146.31 20.6927V23.6286H137.166V20.6927H146.31ZM154.206 39.1322C153.156 39.1322 152.215 38.9656 151.382 38.6324C150.55 38.291 149.842 37.8204 149.259 37.2208C148.684 36.6211 148.243 35.9257 147.934 35.1345C147.626 34.3349 147.472 33.4854 147.472 32.5859V32.0862C147.472 31.0618 147.618 30.1248 147.909 29.2753C148.201 28.4258 148.617 27.6887 149.159 27.0641C149.708 26.4394 150.375 25.9605 151.158 25.6274C151.94 25.2859 152.823 25.1152 153.806 25.1152C154.764 25.1152 155.613 25.2734 156.355 25.5899C157.096 25.9064 157.716 26.3562 158.216 26.9392C158.724 27.5222 159.107 28.2217 159.365 29.0379C159.624 29.8458 159.753 30.7453 159.753 31.7364V33.2355H149.009V30.8369H156.217V30.5621C156.217 30.0624 156.126 29.6168 155.942 29.2253C155.767 28.8256 155.501 28.5091 155.143 28.2759C154.785 28.0427 154.327 27.9261 153.769 27.9261C153.294 27.9261 152.886 28.0302 152.544 28.2384C152.203 28.4466 151.924 28.7381 151.707 29.1129C151.499 29.4877 151.341 29.9291 151.233 30.4371C151.133 30.9369 151.083 31.4865 151.083 32.0862V32.5859C151.083 33.1273 151.158 33.627 151.308 34.0851C151.466 34.5431 151.686 34.9387 151.97 35.2719C152.261 35.605 152.611 35.8632 153.019 36.0464C153.435 36.2297 153.906 36.3213 154.431 36.3213C155.08 36.3213 155.684 36.1963 156.242 35.9465C156.809 35.6883 157.296 35.301 157.704 34.7847L159.453 36.6836C159.17 37.0917 158.782 37.4831 158.291 37.8579C157.808 38.2327 157.225 38.5408 156.542 38.7824C155.859 39.0156 155.08 39.1322 154.206 39.1322ZM168.023 39.1322C166.974 39.1322 166.032 38.9656 165.2 38.6324C164.367 38.291 163.659 37.8204 163.076 37.2208C162.501 36.6211 162.06 35.9257 161.752 35.1345C161.443 34.3349 161.289 33.4854 161.289 32.5859V32.0862C161.289 31.0618 161.435 30.1248 161.727 29.2753C162.018 28.4258 162.434 27.6887 162.976 27.0641C163.526 26.4394 164.192 25.9605 164.975 25.6274C165.758 25.2859 166.64 25.1152 167.623 25.1152C168.581 25.1152 169.43 25.2734 170.172 25.5899C170.913 25.9064 171.533 26.3562 172.033 26.9392C172.541 27.5222 172.924 28.2217 173.182 29.0379C173.441 29.8458 173.57 30.7453 173.57 31.7364V33.2355H162.826V30.8369H170.034V30.5621C170.034 30.0624 169.943 29.6168 169.759 29.2253C169.585 28.8256 169.318 28.5091 168.96 28.2759C168.602 28.0427 168.144 27.9261 167.586 27.9261C167.111 27.9261 166.703 28.0302 166.361 28.2384C166.02 28.4466 165.741 28.7381 165.524 29.1129C165.316 29.4877 165.158 29.9291 165.05 30.4371C164.95 30.9369 164.9 31.4865 164.9 32.0862V32.5859C164.9 33.1273 164.975 33.627 165.125 34.0851C165.283 34.5431 165.504 34.9387 165.787 35.2719C166.078 35.605 166.428 35.8632 166.836 36.0464C167.253 36.2297 167.723 36.3213 168.248 36.3213C168.897 36.3213 169.501 36.1963 170.059 35.9465C170.626 35.6883 171.113 35.301 171.521 34.7847L173.27 36.6836C172.987 37.0917 172.599 37.4831 172.108 37.8579C171.625 38.2327 171.042 38.5408 170.359 38.7824C169.676 39.0156 168.897 39.1322 168.023 39.1322ZM183.602 35.934V19.6933H187.224V38.8823H183.964L183.602 35.934ZM175.056 32.2861V32.0237C175.056 30.991 175.173 30.054 175.406 29.2128C175.639 28.3633 175.981 27.6346 176.431 27.0266C176.88 26.4186 177.434 25.9481 178.092 25.6149C178.75 25.2818 179.5 25.1152 180.341 25.1152C181.132 25.1152 181.823 25.2818 182.415 25.6149C183.014 25.9481 183.522 26.4228 183.939 27.0391C184.364 27.6471 184.705 28.3675 184.963 29.2004C185.221 30.0249 185.409 30.9285 185.525 31.9113V32.486C185.409 33.4271 185.221 34.3016 184.963 35.1095C184.705 35.9173 184.364 36.6253 183.939 37.2332C183.522 37.8329 183.014 38.2993 182.415 38.6324C181.815 38.9656 181.115 39.1322 180.316 39.1322C179.475 39.1322 178.725 38.9614 178.067 38.62C177.418 38.2785 176.868 37.7996 176.418 37.1833C175.977 36.567 175.639 35.8424 175.406 35.0095C175.173 34.1767 175.056 33.2689 175.056 32.2861ZM178.654 32.0237V32.2861C178.654 32.8441 178.696 33.3646 178.779 33.8477C178.871 34.3307 179.017 34.7597 179.217 35.1345C179.425 35.5009 179.691 35.7882 180.016 35.9965C180.349 36.1963 180.753 36.2963 181.228 36.2963C181.844 36.2963 182.352 36.1589 182.752 35.884C183.152 35.6009 183.456 35.2136 183.664 34.7222C183.881 34.2308 184.005 33.6645 184.039 33.0232V31.3866C184.014 30.8619 183.939 30.3913 183.814 29.9749C183.697 29.5502 183.522 29.1879 183.289 28.888C183.064 28.5882 182.781 28.355 182.44 28.1884C182.107 28.0219 181.711 27.9386 181.253 27.9386C180.786 27.9386 180.387 28.0468 180.054 28.2634C179.72 28.4716 179.45 28.7589 179.242 29.1254C179.042 29.4919 178.892 29.9249 178.792 30.4247C178.7 30.916 178.654 31.4491 178.654 32.0237Z" fill="#E1E1E6"/>
</svg>
